<svg id="logo" xmlns="http://www.w3.org/2000/svg" viewBox="0 0 150 50">
    <title>logo-folhafake</title>
    <path class="clbase" d="M0,50H29.18V47.5H0V50ZM113.43,13A11,11,0,0,0,108,14.56a9.9,9.9,0,0,0-3.82,3.76H104V0H98.69V43.06H104V25.35a6.46,6.46,0,0,1,.36-2.55,7.67,7.67,0,0,1,7.16-5.34c5,0,6.79,4,6.79,8.73V43.06h5.34V25.59C123.68,15.46,117.37,13,113.43,13Zm-81.75,30H37V24.56H52.42V20.2H37V6.61H53.69V2.18h-22V43.06ZM68.32,13c-8.13,0-14.56,5.76-14.56,15.59,0,9.28,6.13,15.1,14.07,15.1,7.1,0,14.62-4.73,14.62-15.59C82.45,19.16,76.75,13,68.32,13ZM68.08,39.72c-5.22,0-8.92-4.85-8.92-11.28,0-5.58,2.73-11.4,9-11.4S77,23.35,77,28.32C77,34.93,73.17,39.72,68.08,39.72ZM149.51,36V25c0-5.88-2.18-12-11.16-12a18.22,18.22,0,0,0-9.64,2.61l1.21,3.52A14.63,14.63,0,0,1,137.57,17c6,0,6.67,4.37,6.67,6.79v0.61c-11.34-.06-17.65,3.82-17.65,10.92,0,4.25,3,8.43,9,8.43a10.93,10.93,0,0,0,9-4.37h0.18l0.42,3.7H150A41.34,41.34,0,0,1,149.51,36Zm-5.16-2.85a5.57,5.57,0,0,1-.3,1.7,7.3,7.3,0,0,1-7.1,4.91,4.72,4.72,0,0,1-5-5.09c0-5.7,6.61-6.73,12.43-6.61v5.09ZM85.92,43.06h5.34V0H85.92V43.06Z"/>
</svg>